<?xml version="1.0" encoding="UTF-8" standalone="no"?>
<!-- Created with Inkscape (http://www.inkscape.org/) -->

<svg
   xmlns:dc="http://purl.org/dc/elements/1.1/"
   xmlns:cc="http://creativecommons.org/ns#"
   xmlns:rdf="http://www.w3.org/1999/02/22-rdf-syntax-ns#"
   xmlns:svg="http://www.w3.org/2000/svg"
   xmlns="http://www.w3.org/2000/svg"
   xmlns:sodipodi="http://sodipodi.sourceforge.net/DTD/sodipodi-0.dtd"
   xmlns:inkscape="http://www.inkscape.org/namespaces/inkscape"
   version="1.1"
   id="svg815"
   width="2902"
   height="1968"
   viewBox="0 0 2902 1968"
   sodipodi:docname="mpa-light.svg"
   inkscape:version="0.92.2 (5c3e80d, 2017-08-06)"
   inkscape:export-filename="/home/user/Downloads/mpa-light.png"
   inkscape:export-xdpi="179.99142"
   inkscape:export-ydpi="179.99142">
  <metadata
     id="metadata821">
    <rdf:RDF>
      <cc:Work
         rdf:about="">
        <dc:format>image/svg+xml</dc:format>
        <dc:type
           rdf:resource="http://purl.org/dc/dcmitype/StillImage" />
        <dc:title />
      </cc:Work>
    </rdf:RDF>
  </metadata>
  <defs
     id="defs819">
    <inkscape:perspective
       sodipodi:type="inkscape:persp3d"
       inkscape:vp_x="283.85588 : 672.45086 : 1"
       inkscape:vp_y="0 : 1000 : 0"
       inkscape:vp_z="3185.8559 : 672.45086 : 1"
       inkscape:persp3d-origin="1734.8559 : 344.45086 : 1"
       id="perspective873" />
  </defs>
  <sodipodi:namedview
     pagecolor="#ffffff"
     bordercolor="#666666"
     borderopacity="1"
     objecttolerance="10"
     gridtolerance="10"
     guidetolerance="10"
     inkscape:pageopacity="0"
     inkscape:pageshadow="2"
     inkscape:window-width="1436"
     inkscape:window-height="1541"
     id="namedview817"
     showgrid="false"
     inkscape:zoom="0.43331848"
     inkscape:cx="775.35158"
     inkscape:cy="852.80223"
     inkscape:window-x="1442"
     inkscape:window-y="77"
     inkscape:window-maximized="0"
     inkscape:current-layer="layer3" />
  <g
     inkscape:groupmode="layer"
     id="layer1"
     inkscape:label="Layer 1">
    <rect
       style="opacity:1;fill:#eae1bb;fill-opacity:1;stroke:none;stroke-width:21.85584259;stroke-miterlimit:4;stroke-dasharray:none;stroke-opacity:1"
       id="rect828"
       width="2110"
       height="2110"
       x="447.2475"
       y="-87.228096" />
    <path
       style="opacity:1;fill:#eae1bb;fill-opacity:1;stroke:none;stroke-width:31.74803162;stroke-miterlimit:4;stroke-dasharray:none;stroke-opacity:1"
       id="path895"
       d="m 1055.3426,249.96176 c 6.424,4.42609 13.3384,8.05055 19.9703,12.14817 4.2315,1.85283 7.4733,5.29227 11.5225,7.40334 2.8938,2.48631 6.4883,3.75738 9.7244,5.64243 3.2509,1.66607 6.7485,2.91126 9.8757,4.7994 3.0559,1.59884 6.3426,2.81126 9.2802,4.62027 3.6022,1.59272 7.1493,3.32516 10.7742,4.88183 0.7045,0.23801 1.4284,0.42505 2.1137,0.71403 7.5618,3.18906 -3.0738,-0.93395 3.918,1.89099 1.868,0.75475 3.7279,1.1247 5.5676,1.96751 3.5017,1.0515 6.8509,2.49447 10.3601,3.52527 4.0349,0.94329 7.9329,2.32578 11.773,3.86899 3.6948,1.07683 7.3642,2.31067 10.8893,3.8761 3.8623,1.36357 7.7086,2.8055 11.4367,4.51686 4.1446,1.7091 8.5691,2.74269 12.6414,4.60477 4.1464,1.3613 8.3334,2.70474 12.5668,3.83677 3.653,1.23088 7.6241,1.97778 11.1678,3.52041 3.5006,1.57061 7.3193,1.86784 11.0964,2.09421 4.4884,0.19021 8.9824,0.16388 13.4737,0.15842 4.5783,-0.20736 9.2354,0.44689 13.7436,-0.4638 4.5723,-1.03133 9.2354,-1.45898 13.9055,-1.70725 4.6672,0.0331 9.1757,-0.17174 13.7456,-1.06523 4.6931,-0.91474 9.4688,-1.19509 14.2381,-1.3113 4.958,0.39757 9.6325,-0.49039 14.4492,-1.4193 4.6911,-0.57561 9.3205,-0.92873 13.9693,-1.79113 5.0103,-0.73217 9.9696,-1.19989 14.9091,-2.29918 4.4494,-0.36445 8.5734,-1.74427 12.8683,-2.78481 0.6689,-0.11782 1.3581,-0.15227 2.0069,-0.35346 1.1485,-0.35618 2.1736,-1.04523 3.3162,-1.4202 1.8517,-0.60769 3.5248,-0.77053 5.2751,-1.6629 3.9001,-1.78297 8.1854,-2.42681 12.1081,-4.10248 4.0306,-1.2004 7.5583,-3.32365 11.6766,-4.2568 3.4911,-1.66159 7.1329,-3.12396 10.8747,-4.14302 3.3162,-2.47532 7.5959,-2.26393 11.2257,-3.80364 2.3633,-1.23146 5.1033,-1.03962 7.6004,-1.66268 1.1769,-0.29366 2.2634,-0.87584 3.4141,-1.2596 3.8403,-0.4536 7.3482,-1.83321 11.0685,-2.75269 3.5526,-0.64899 6.7726,-2.37737 10.0117,-3.89346 3.2225,-1.23301 6.1703,-3.05387 9.261,-4.601 0.569,-0.19121 1.1709,-0.3036 1.707,-0.57362 1.0075,-0.50743 3.8778,-2.30669 2.9018,-1.74126 -45.416,26.3089 -35.4501,21.03021 -25.4103,14.28908 2.9137,-2.5006 5.1553,-5.68777 7.3335,-8.82527 2.1575,-3.12256 4.1479,-6.34703 5.9775,-9.67234 1.4115,-3.34392 2.7287,-6.69991 3.7741,-10.17661 1.621,-3.57292 2.2231,-7.44827 3.2144,-11.21267 1.0851,-4.03478 1.8795,-8.13333 1.4006,-12.30648 -0.3761,-3.80745 -1.271,-7.45464 -2.3001,-11.12275 -1.2432,-3.16876 -2.6504,-6.22874 -4.3603,-9.17275 -1.6883,-3.18926 -3.744,-6.25263 -6.2774,-8.83377 -2.2032,-2.42193 -4.3919,-4.9181 -6.8663,-7.07353 -2.6729,-1.83345 -5.4484,-3.43421 -8.317,-4.95599 -3.7021,-1.28123 -7.3697,-2.56906 -11.2373,-3.28776 -3.7384,-1.85745 -7.9269,-2.07335 -11.8509,-3.24337 -4.4549,-1.12703 -8.9603,-1.76207 -13.4214,-2.85844 -5.2946,-0.62449 -10.4633,-1.76008 -15.694,-2.75615 -4.6635,-0.83942 -9.4043,-0.99885 -14.1297,-1.09456 -4.604,-0.0581 -9.2086,-0.0363 -13.8129,-0.0275 -4.6134,0.01 -9.2269,0.013 -13.8404,0.015 -3.9434,0.88511 -7.808,1.80205 -11.6768,2.93598 -3.8603,0.90812 -7.379,2.79899 -10.9246,4.50332 -10.2569,5.90866 -24.1491,13.53469 24.322,-14.01055 3.9245,-2.23021 -3.6496,2.44292 -4.5562,3.16416 -2.9218,2.20698 -5.5552,4.75416 -8.2027,7.27623 -2.4387,2.46321 -4.7495,5.05875 -7.2701,7.43844 -2.6437,2.98759 -4.409,6.69549 -5.9984,10.32751 -1.8588,4.44034 -3.4888,8.97678 -4.9798,13.553 -1.3615,4.36993 -1.6794,8.93774 -1.8722,13.48067 -0.024,4.90803 -0.3699,9.84159 0.09,14.73503 0.6229,4.28881 1.4469,8.51507 2.9214,12.59562 1.795,4.20336 3.6085,8.40709 5.5173,12.56934 1.5943,3.73264 3.9065,6.98573 6.2691,10.24416 3.4918,2.68643 7.1027,5.21078 10.7921,7.61342 3.4081,2.57165 7.2438,4.47527 10.7696,6.83985 3.4065,2.03791 7.225,3.14447 10.8615,4.66444 4.4534,1.46283 8.7958,3.17144 13.3991,4.12411 4.6028,0.92675 9.0979,2.15811 13.7823,2.71327 4.5601,0.43657 9.146,0.44307 13.7224,0.46137 5.07,0.003 10.14,0.004 15.2099,-0.006 5.2586,-0.0199 10.5172,-0.003 15.7757,-0.006 5.6423,-0.14893 11.3204,0.39012 16.9199,-0.39867 6.0854,-1.06831 12.2469,-1.44449 18.4096,-1.70127 6.4163,-0.37591 12.7711,-1.46204 19.1875,-2.00815 6.4869,-0.41861 12.9899,-0.47754 19.4881,-0.50173 6.509,-0.38357 13.2145,0.87217 19.5605,-0.78541 6.3872,-1.88875 12.9564,-2.91105 19.5828,-3.43377 6.152,-0.22032 12.2032,-0.29533 18.2755,-1.29005 5.7714,-0.94628 11.6266,-1.15745 17.4621,-1.31847 4.0115,-0.48997 8.1977,0.42594 12.1935,-0.10967 0.3599,-0.0482 5.6974,-1.55575 5.9889,-1.63733 6.1827,-1.86305 12.631,-2.37751 19.0423,-2.75883 6.0694,-0.27666 12.1479,-0.23671 18.222,-0.23355 6.0756,-0.94892 12.1807,-1.58768 18.3166,-1.95638 6.1703,-0.31363 12.3512,-0.3142 18.5278,-0.33211 5.7473,0.51698 11.2721,-0.44672 16.9143,-1.25491 5.8501,-0.76787 11.7596,-0.88785 17.6512,-0.99488 6.104,-0.41135 12.3826,0.75372 18.3219,-0.84871 6.0167,-1.98253 12.2685,-2.89474 18.5551,-3.43156 6.3825,-0.39601 12.7787,-0.39644 19.1706,-0.41547 6.1854,0.007 12.3708,0.0258 18.5563,0.0259 5.9172,-0.89739 11.0211,1.76127 16.578,3.14788 5.3734,1.19641 10.8973,1.32772 16.3777,1.45274 5.0153,0.30491 10.3482,0.74071 15.1471,2.34106 4.3596,0.82857 8.4996,2.28543 12.7676,3.44666 5.1391,1.50174 9.5547,4.38927 14.0421,7.22101 3.9488,2.90646 8.1005,5.57052 11.7378,8.86917 2.7505,2.47408 5.529,4.82627 8.3769,7.1706 3.9623,3.57981 7.137,7.97784 10.283,12.27349 3.1831,3.47955 5.5371,7.52202 8.3526,11.28095 3.4821,3.40058 6.0557,7.48769 8.5263,11.64199 3.6921,3.59701 6.5174,7.7581 8.9773,12.26111 2.6503,4.56478 5.6347,8.89605 8.6458,13.22278 2.9478,3.95763 4.5517,8.40851 6.065,13.04306 0.7989,5.17253 3.4236,9.61814 5.3483,14.39515 1.7614,5.03147 3.0401,10.1882 3.865,15.4499 0.7029,5.40606 0.7396,10.87198 0.7989,16.31514 0.2788,5.41881 -0.1775,10.76648 -0.9463,16.12216 -0.3725,4.73055 -2.4399,9.01541 -4.872,13.01084 -2.4359,3.1478 -4.2733,6.61785 -6.1073,10.13971 -2.9467,5.45121 -7.4461,9.82399 -11.7485,14.206 -3.7386,4.22596 -8.1477,7.54825 -12.8562,10.5874 -10.5272,5.96692 -20.971,12.08353 -31.5816,17.90075 -9.2567,5.07492 18.306,-10.52018 27.5192,-15.67359 1.2816,-0.71686 -2.3194,1.81613 -3.5868,2.55785 -30.983,18.13238 -20.3895,13.67051 -33.9635,19.22356 -5.0207,2.09464 -10.1711,4.10132 -15.3985,5.67777 -0.8667,0.15557 -1.7621,0.19645 -2.6002,0.46671 -1.7551,0.56593 -3.3125,1.63826 -5.0448,2.27039 -2.9597,1.07999 -6.0066,1.66686 -9.1006,2.18416 -5.3192,1.89435 -10.8442,2.64172 -16.4394,3.07744 -6.8929,1.55515 -13.9443,1.87478 -20.9754,2.21596 -8.1385,0.31033 -16.284,0.31448 -24.4271,0.34032 -8.7578,-0.009 -17.5155,-0.0448 -26.2733,-0.0333 -10.2288,-0.0269 -20.4577,-0.0393 -30.6865,-0.0381 -11.1368,-0.81715 -22.274,-1.5568 -33.4343,-1.95378 -5.7871,-0.4313 -11.6334,0.0656 -17.4177,-0.316 -6.071,-0.40047 -12.1866,-1.56703 -18.2195,-2.34304 -1.9823,-0.22436 -3.9752,-0.36903 -5.9469,-0.67308 -0.5455,-0.0841 -11.9185,-2.31703 -12.502,-2.42612 -6.1699,-1.15349 -12.3342,-1.96147 -18.4756,-3.27326 -7.985,-2.19166 -16.255,-2.75104 -24.4005,-3.96655 -4.1976,-0.62638 -8.3481,-1.53543 -12.5226,-2.30069 -12.3723,-3.34839 -24.8578,-6.15448 -37.0413,-10.16354 -12.8855,-3.62071 -25.2745,-8.73166 -38.1247,-12.46531 -12.5416,-3.93635 -25.205,-7.51377 -37.2053,-12.93 -11.5989,-5.21325 -23.2734,-10.23549 -34.9424,-15.29048 -11.6829,-4.12894 -22.7044,-9.77109 -33.9703,-14.86022 -10.9405,-5.14053 -21.0419,-11.77221 -31.3714,-17.98648 -9.9201,-6.08549 -18.7585,-13.68332 -28.0631,-20.63586 -9.1642,-6.1354 -18.5877,-11.8785 -27.6295,-18.19269 -5.8911,-3.12044 -10.1287,-8.30853 -15.1452,-12.52426 -0.7535,-0.6332 -6.6893,-5.03822 -7.3811,-5.55382 -1.1848,-1.06677 -2.344,-2.16264 -3.5544,-3.20029 -2.6347,-2.25872 -4.2547,-3.24555 -6.7096,-5.72525 -2.9193,-2.94865 -5.4824,-5.99208 -8.6013,-8.76014 -5.0044,-5.40785 -10.514,-10.31778 -15.5566,-15.67079 -4.9226,-4.00245 -8.7849,-9.00114 -13.099,-13.58381 -4.3464,-5.39261 -8.9441,-10.56015 -13.54,-15.74363 -4.9482,-4.67685 -8.4256,-10.65814 -11.4317,-16.70872 -2.3513,-4.97832 -4.1749,-10.05619 -5.1965,-15.46859 -0.392,-4.16577 0.1656,-8.40706 1.4006,-12.39385 1.2989,-3.29681 3.1706,-6.34856 5.0004,-9.37669 1.8432,-3.3282 4.1061,-6.35502 6.4269,-9.35398 10.3896,-12.16806 20.6378,-14.82105 37.4743,-24.62933 -9.1615,5.2738 -18.3089,10.57237 -27.4846,15.82141 -0.6368,0.36425 1.2287,-0.80327 1.8662,-1.16623 10.4601,-5.95584 20.8157,-12.1029 31.4247,-17.78922 9.2768,-4.97222 -18.2659,10.46335 -27.4266,15.64626 -0.7149,0.40447 1.3879,-0.87884 2.0872,-1.30976 0.8066,-0.49707 1.6201,-0.98275 2.4301,-1.47412 5.1409,-10.97458 32.8513,-17.03247 45.7325,-24.89899 5.7173,-3.48761 12.7081,-4.27669 18.3764,-7.68164 0.8974,-0.43813 1.8096,-0.84715 2.6922,-1.3144 3.5608,-1.88514 1.6531,-1.24444 5.541,-2.72818 3.1063,-1.18541 6.197,-1.75548 9.2583,-3.08304 6.8521,-2.48977 13.9965,-4.22706 21.1683,-5.52033 1.2976,-0.16791 2.614,-0.2271 3.8928,-0.50373 2.5183,-0.54474 4.9148,-1.55575 7.4075,-2.20781 3.8471,-1.00639 7.7141,-1.70776 11.6425,-2.29374 6.3037,-2.67668 12.8706,-4.281 19.6504,-5.07917 7.6397,-0.91739 15.2213,-1.95643 22.9191,-2.38573 8.7368,-0.45436 17.4882,-0.49854 26.2347,-0.53446 1.3892,-0.001 2.7838,0.11812 4.1676,-0.004 1.6214,-0.14347 6.4644,-1.24219 8.0747,-1.56962 4.0764,-0.82891 8.1391,-1.43981 12.2666,-1.9456 8.2498,-0.97402 16.5656,-1.00215 24.8596,-1.076 8.7539,-0.0344 17.508,-0.0294 26.262,-0.0174 7.8553,0.001 15.7107,-0.001 23.5661,0.007 7.6502,0.29019 15.4085,-0.74484 22.9432,0.75345 7.0405,1.84318 14.202,2.91781 21.4488,3.45465 7.1652,0.43035 14.3467,0.41598 21.5218,0.43085 6.9604,0.84919 13.9253,1.56978 20.9278,1.94659 6.5859,0.29623 13.1799,0.31944 19.7712,0.33169 5.6025,0.004 11.1031,1.2965 16.685,1.78633 5.5447,-0.39728 10.2825,2.27461 15.4942,3.64802 4.2295,1.32108 8.7768,2.11584 12.8804,3.80516 4.4842,1.2836 8.8328,2.94292 13.2074,4.57431 4.1356,1.99203 7.9711,4.45613 11.8551,6.86975 3.5466,2.05902 6.7016,4.63327 9.99,7.05505 3.1754,3.22533 6.5367,6.20906 10.2505,8.80262 4.6261,3.36685 9.0035,7.08716 13.267,10.89794 3.5708,3.25761 7.5324,6.13807 10.9148,9.56634 3.3966,3.35458 6.8759,6.5509 10.2963,9.88253 3.3308,3.534 6.2075,7.40958 9.7967,10.70452 4.5916,3.38287 8.2609,7.84203 12.0097,12.10551 4.7757,5.72779 9.7917,11.20486 14.2808,17.17404 4.1538,3.8035 7.4218,8.3757 10.5743,13.0065 2.1296,4.30371 4.9002,8.26393 7.4582,12.32582 2.5622,4.30166 2.9546,9.28692 3.2951,14.16587 0.167,4.85233 0.4008,9.72664 0.047,14.57394 -0.6316,4.18032 -1.5357,8.29649 -2.9203,12.29177 -2.0171,5.13383 -5.1465,9.70833 -8.4388,14.09481 -3.1614,4.93889 -6.5027,9.53987 -10.698,13.63769 -3.8293,4.53722 -8.2499,8.46589 -12.7469,12.31427 -4.862,4.20779 -9.6631,8.35543 -15.0467,11.88816 -6.532,4.34729 -13.1246,8.60257 -19.7165,12.8597 -16.3785,10.54417 -33.5305,19.80763 -50.9566,28.46417 -7.2991,3.49103 -14.6222,6.91968 -22.1067,10.01024 -7.5665,3.16363 -15.4005,5.10694 -23.5365,5.95882 -5.9721,1.86277 -12.2714,2.32125 -18.3391,3.67742 -2.9283,0.65451 -5.7548,1.70192 -8.6377,2.53425 -6.02,2.02385 -12.4132,2.0186 -18.6114,2.97598 -3.3798,0.52206 -6.6991,1.38246 -10.0625,2.00182 -10.8687,2.2107 -21.9631,2.7425 -33.0182,3.10206 -12.0176,0.28433 -24.0403,0.22722 -36.0605,0.22218 -13.3804,-0.0289 -26.7609,-0.0575 -40.1414,-0.0538 -14.045,-0.23096 -28.1164,0.57382 -42.117,-0.68198 -14.3485,-1.79887 -28.7562,-2.89104 -43.1998,-3.49403 -13.9002,-0.47004 -27.81,-0.45782 -41.7162,-0.48667 -14.5913,0.7038 -29.0248,-1.5178 -43.507,-2.89192 -14.5456,-1.54026 -29.2124,-0.84473 -43.7463,-2.31226 -14.5772,-1.88127 -29.2237,-2.97013 -43.9042,-3.56068 -6.5872,-0.48863 -13.23,0.005 -19.8163,-0.38282 -6.752,-0.39785 -13.5331,-1.55071 -20.25,-2.32618 -13.2088,-1.51496 -26.5037,-1.95613 -39.7862,-2.20749 -12.1491,-0.19087 -24.3001,-0.13541 -36.4501,-0.10292 -10.5327,-0.0251 -21.0654,0.0296 -31.5982,0.0478 -6.0332,0.39993 -12.1765,-0.50275 -18.1997,0.008 -1.1649,0.0989 -7.1381,1.34086 -8.2792,1.5716 -7.6226,1.99506 -15.5773,1.8289 -23.2667,3.26981 -5.7431,1.03312 -11.493,1.53001 -17.16701,2.8746 -10.25409,6.13173 -25.68493,14.35544 22.95251,-13.06032 5.4221,-3.05633 -4.9266,3.22902 -6.0473,4.00673 -3.1124,2.13843 -6.0856,4.51141 -8.7392,7.2002 -3.0016,3.08449 -4.7206,6.91792 -6.17403,10.89315 -1.77302,3.53624 -2.29176,7.46226 -3.4296,11.2025 -1.37622,3.75157 -1.58134,7.74015 -2.10925,11.65777 -1.11667,4.56535 -1.70002,9.21353 -2.05279,13.89154 -0.2931,5.5783 -0.30688,11.16694 -0.31248,16.75151 -0.42283,5.49132 0.57972,10.86007 1.31006,16.26922 0.76487,5.92482 0.85177,11.90739 0.963,17.8719 0.99318,6.06344 2.40287,12.08283 4.26475,17.94152 1.05273,5.57789 2.58954,10.87281 4.41114,16.23621 2.1492,5.8662 4.762,11.55119 7.3746,17.22386 2.2264,5.63417 4.648,11.09357 7.7898,16.2861 3.2255,5.29684 6.6096,10.51214 10.2333,15.54302 3.4355,5.25555 6.7225,10.64447 10.488,15.67394 4.06,5.39521 8.6341,10.33006 12.8613,15.58484 5.2157,5.06101 10.474,10.07221 16.1226,14.65145 6.674,5.66613 12.7928,11.97924 19.5274,17.56219 6.5692,5.96473 13.7403,11.11262 21.2058,15.8951 7.7894,4.89246 15.3612,10.29663 23.8168,13.98954 6.5061,2.73584 12.5321,6.28299 18.3994,10.18071 0,0 -28.7335,18.44617 -28.7335,18.44617 v 0 c -5.8099,-3.68633 -11.7118,-7.15936 -18.0882,-9.79589 -8.4264,-4.0773 -16.1859,-9.40642 -24.0804,-14.41039 -7.5076,-4.9717 -14.793,-10.19257 -21.487,-16.23344 -6.5764,-5.7409 -12.7781,-11.90462 -19.4972,-17.49408 -5.8007,-4.74955 -11.2621,-9.89737 -16.5415,-15.21501 -4.3161,-5.25312 -8.8277,-10.31961 -12.9895,-15.70065 -3.6923,-5.10186 -7.0704,-10.42752 -10.48853,-15.71527 -3.67442,-5.10944 -7.10906,-10.41184 -10.37231,-15.79178 -3.16832,-5.31767 -5.85939,-10.79897 -7.98236,-16.61494 -2.63718,-5.79339 -5.34321,-11.55571 -7.58137,-17.51451 -0.91159,-2.71237 -2.22552,-5.42827 -2.88612,-8.21248 -0.62926,-2.65208 -0.55756,-5.50058 -1.57483,-8.0806 -1.92093,-6.18743 -3.28983,-12.51336 -4.69379,-18.83648 -0.0663,-5.8387 -0.14995,-11.69144 -0.82085,-17.49845 -0.71088,-5.55286 -1.91476,-11.04579 -1.49743,-16.68259 0.01,-5.63945 -0.0188,-11.28072 0.20037,-16.91716 0.20973,-4.80057 0.65352,-9.59772 1.76883,-14.28391 1.09448,-3.89579 0.54984,-8.11911 1.93892,-11.98874 1.25449,-3.814 1.82044,-7.75141 3.32489,-11.49154 1.89813,-3.99215 2.72535,-8.46825 5.67743,-11.96353 2.53797,-3.01648 5.39418,-5.54369 8.46332,-8.01068 13.73978,-8.61828 26.84503,-19.2582 42.41133,-24.2069 5.7008,-1.1258 11.5153,-1.55788 17.2266,-2.64615 7.7356,-0.89717 15.4992,-1.57588 23.1179,-3.28758 8.8865,-1.44892 17.8234,-1.07412 26.8034,-1.0571 10.5124,0.007 21.0248,0.0423 31.5372,-0.004 12.1298,0.0175 24.2601,0.0493 36.3886,0.24225 13.3337,0.33468 26.6741,0.89319 39.9263,2.49163 13.2832,1.5182 26.5287,2.55949 39.9142,2.52687 14.6996,0.71451 29.3484,1.96904 43.9648,3.69909 14.5758,1.10092 29.2343,0.78504 43.7894,2.32038 14.4087,1.45183 28.7985,3.3336 43.32,2.6273 13.9305,0.0165 27.8664,0.0525 41.7877,0.61296 14.4557,0.67833 28.8554,1.97569 43.2359,3.59411 13.9922,0.83427 28.0189,0.28081 42.0307,0.43553 13.3989,0.0176 26.7977,0.0143 40.1965,0.0129 12.0101,0.003 24.0237,0.0237 36.0291,-0.36015 10.9814,-0.47818 21.9631,-1.24663 32.7448,-3.52201 9.5262,-1.81613 19.2371,-2.58898 28.5798,-5.2873 8.982,-2.46293 18.1807,-3.95745 27.2973,-5.83519 7.937,-1.24284 15.6009,-3.46411 22.9684,-6.70676 7.385,-3.28182 14.7734,-6.5363 21.9901,-10.18001 3.6579,-1.8536 7.2937,-3.74768 10.9384,-5.62699 1.1855,-0.61131 4.705,-2.51233 3.5568,-1.83344 -9.2496,5.46914 -36.4413,21.10061 -21.9795,12.78359 6.3867,-4.50624 13.1613,-8.45006 19.654,-12.81098 12.0747,-8.62851 -6.028,4.13728 5.6051,-3.53037 2.6782,-1.76521 4.6725,-4.08008 7.0274,-6.17023 0.7778,-0.69036 1.6861,-1.21796 2.5292,-1.82694 4.4303,-3.83908 9.2357,-7.39378 12.831,-12.04832 1.8522,-1.94732 4.3098,-3.61557 5.9873,-5.69659 1.8552,-2.30149 3.1959,-5.14471 4.8621,-7.57874 3.3257,-4.07158 6.6723,-8.40826 8.6834,-13.26878 1.9736,-3.53347 2.4373,-7.52847 3.338,-11.42674 0.9753,-4.56438 0.1793,-9.35891 0.3016,-13.99627 -0.2167,-4.30981 -0.3248,-8.79296 -2.5149,-12.63888 -2.513,-4.04051 -5.2107,-8.00007 -7.3594,-12.24068 -3.1036,-4.61048 -6.4371,-9.01324 -10.4131,-12.92014 -4.3847,-5.93165 -9.3327,-11.33815 -14.1358,-16.92257 -3.735,-4.17481 -7.4462,-8.42555 -11.949,-11.8049 -3.4683,-3.41605 -6.4783,-7.2079 -9.7922,-10.76359 -3.3923,-3.34232 -6.9896,-6.43335 -10.3159,-9.84228 -3.5305,-3.21941 -7.1837,-6.31132 -10.7552,-9.49053 -4.2325,-3.71344 -8.5797,-7.31712 -13.1813,-10.56764 -3.6231,-2.7474 -6.9953,-5.74812 -10.3288,-8.83553 -3.143,-2.46389 -6.4022,-4.74064 -9.8123,-6.8244 -3.6504,-2.36915 -7.4212,-4.56707 -11.4155,-6.31203 -4.362,-1.65674 -8.8189,-2.98658 -13.235,-4.48101 -4.2266,-1.23722 -8.4189,-2.5866 -12.6891,-3.66677 -5.0083,-1.5275 -9.7682,-3.37316 -15.1263,-3.1615 -5.474,-0.61176 -10.9146,-1.75289 -16.4488,-1.55291 -6.6231,-0.0412 -13.2501,-0.0845 -19.8626,-0.50421 -6.9503,-0.46841 -13.8545,-1.39733 -20.8077,-1.79129 -7.2273,-0.0312 -14.4643,-0.0809 -21.6721,-0.66892 -7.2846,-0.70562 -14.4284,-2.09883 -21.5795,-3.63333 -7.5104,-0.74716 -15.0836,-0.16359 -22.6217,-0.35385 -7.8476,0.004 -15.6952,-0.007 -23.5428,-0.0285 -8.7375,-0.0106 -17.4753,-0.0559 -26.2126,0.0366 -8.2263,0.12062 -16.4716,0.32311 -24.6359,1.42993 -8.2364,1.21625 -16.3916,3.45154 -24.7752,3.16754 -8.6941,0.0493 -17.3937,0.11479 -26.0731,0.67768 -7.6637,0.59752 -15.2436,1.77045 -22.8736,2.67868 -6.6855,1.15182 -13.0152,3.37723 -19.5557,5.10457 -7.7013,1.43725 -15.1482,3.88049 -22.891,5.09559 -7.0719,1.54108 -14.1294,3.28439 -20.855,6.00273 -6.0061,1.99165 -11.8121,4.25788 -17.3324,7.40046 -6.1634,2.40968 -12.5062,4.43686 -18.2716,7.76418 -12.3977,5.84319 -39.6022,19.33613 12.9381,-8.88418 -0.8066,0.46159 -1.6132,0.92318 -2.4198,1.38477 -0.6961,0.42797 -1.3816,0.87369 -2.0882,1.28393 -104.857,60.87275 18.9052,-11.08892 -5.8534,3.28817 -10.4284,6.05563 -20.8349,12.14881 -31.2523,18.22321 53.7767,-31.46983 28.3537,-19.751 20.9909,-10.24135 -2.7514,2.41214 -4.8983,5.62426 -6.6859,8.78801 -1.9248,2.82648 -3.3848,5.82909 -5.3413,8.61167 -1.3033,3.5249 -2.1383,7.09429 -2.2375,10.89451 0.8176,5.1455 2.5001,9.92042 4.6578,14.65665 2.8126,5.81906 6.2428,11.41675 10.8964,15.95371 4.584,5.1685 9.2262,10.27923 13.5894,15.63666 4.2127,4.65899 8.2706,9.42204 13.0303,13.5592 5.0477,5.23247 10.3415,10.2226 15.3612,15.48981 6.2772,5.76143 11.7191,12.36312 18.6221,17.46298 2.408,1.80059 5.2863,3.8887 7.5719,5.85199 4.8488,4.16515 9.1545,9.0075 14.8061,12.1718 9.1368,6.239 18.5698,12.03255 27.6829,18.31054 9.2183,6.90043 17.9823,14.4463 27.8991,20.35912 10.1462,6.26508 20.254,12.64423 31.0873,17.689 11.2062,5.16654 22.3457,10.48 33.9181,14.80471 11.7001,4.99079 23.3225,10.15741 34.9458,15.3235 11.9876,5.14034 24.5473,8.71078 36.9904,12.57197 12.7873,3.95795 25.2526,8.8951 38.1441,12.52667 12.1343,3.77166 24.4783,6.7454 36.8116,9.7878 12.3064,2.2193 24.7677,3.47886 36.9598,6.32545 12.206,2.34309 24.4877,4.4702 36.7981,6.16214 11.8114,1.51929 23.5818,2.54021 35.5089,2.37678 11.1405,0.45579 22.2518,1.34251 33.39,1.82584 10.2585,0.002 20.517,-0.008 30.7755,-0.0241 8.7724,0.0229 17.5447,0.01 26.317,-0.012 8.1024,-0.0161 16.2092,-0.0572 24.3028,-0.46976 7.0588,-0.43046 14.0413,-1.2849 21.0186,-2.4255 5.5004,-0.63882 10.824,-1.9452 16.1781,-3.33285 5.6687,-1.38113 10.9562,-3.74749 16.5729,-5.30104 5.0988,-1.85274 10.2847,-3.51915 15.1342,-5.97746 11.6002,-6.12368 2.4396,-1.32713 -24.9163,14.59085 -1.2631,0.735 2.4073,-1.66161 3.6631,-2.40906 10.386,-6.18157 21.0297,-11.93391 31.2823,-18.33426 8.9247,-5.57137 -18.1978,10.56412 -27.2967,15.84618 4.8819,-2.66489 9.5797,-5.62987 13.2483,-9.8976 4.3918,-3.98321 8.5931,-8.36136 12.0256,-13.1883 1.9873,-3.45995 3.188,-7.42485 6.0252,-10.26572 2.2254,-3.70999 5.111,-7.39454 5.528,-11.80905 0.7804,-5.20971 1.5479,-10.35637 1.1716,-15.64891 -0.018,-5.30119 -0.016,-10.61781 -0.5847,-15.89492 -0.6743,-5.03679 -1.8581,-9.93288 -3.5107,-14.74175 -1.8667,-4.86174 -4.6524,-9.32515 -5.4318,-14.55944 -1.4619,-4.30774 -2.7566,-8.5181 -5.5676,-12.20577 -3.0544,-4.44208 -6.1347,-8.86201 -8.8093,-13.54947 -2.439,-4.48838 -5.5003,-8.37889 -8.9551,-12.13163 -2.3983,-4.06472 -5.0262,-7.92718 -8.3236,-11.33023 -2.8229,-3.76619 -5.2748,-7.75844 -8.3735,-11.31752 -2.9641,-4.07075 -5.9382,-8.26378 -9.8709,-11.46327 -2.9466,-2.30012 -5.6087,-4.88354 -8.4457,-7.31317 -3.6053,-3.06862 -7.4999,-5.78242 -11.4076,-8.4477 -4.2444,-2.7253 -8.6242,-5.114 -13.5523,-6.37759 -4.2071,-1.30377 -8.4617,-2.33171 -12.7327,-3.40559 -4.8063,-0.9952 -9.698,-1.75284 -14.6173,-1.72758 -5.6623,-0.24276 -11.3623,-0.56628 -16.8516,-2.0961 -5.3161,-1.56219 -10.361,-3.1417 -16.0201,-2.43225 -6.1803,-0.0173 -12.3608,-0.0323 -18.5411,-0.0151 -6.3256,0.0285 -12.6638,0.069 -18.9654,0.67994 -6.2333,0.73907 -12.3061,2.15513 -18.4002,3.63139 -6.1945,0.58487 -12.4237,0.19876 -18.6387,0.43702 -5.8315,0.16955 -11.673,0.43552 -17.4419,1.36454 -5.6985,0.86638 -11.3989,0.97029 -17.1601,0.83028 -6.1346,0.0356 -12.2742,0.0883 -18.3969,0.51004 -6.1668,0.48062 -12.2822,1.45437 -18.4586,1.77075 -6.0268,0.0108 -12.0601,0.015 -18.076,0.42243 -6.3217,0.51566 -12.5811,1.43509 -18.6845,3.22014 -6.1522,1.30781 -12.3574,1.02497 -18.619,1.19292 -5.7823,0.24403 -11.5559,0.67548 -17.2686,1.6433 -6.0824,0.77777 -12.2242,0.46475 -18.322,1.12258 -6.5682,0.76675 -12.9982,2.14095 -19.4351,3.63628 -6.6099,0.60916 -13.2603,0.17156 -19.892,0.33648 -6.4466,0.0729 -12.9019,0.14445 -19.3264,0.74018 -6.4231,0.63387 -12.8045,1.73482 -19.2668,1.88653 -6.1442,0.35041 -12.244,1.04427 -18.3447,1.84265 -5.7045,0.28706 -11.4189,0.0957 -17.1292,0.15462 -5.2606,4e-5 -10.5211,0.0196 -15.7816,0.0151 -5.0879,0.005 -10.1759,0.0392 -15.2636,8.8e-4 -4.6697,-0.0654 -9.3537,-0.15751 -13.9834,-0.83147 -4.7036,-0.77284 -9.2879,-2.04078 -13.9596,-2.97438 -4.6456,-1.23476 -9.1651,-2.89979 -13.6861,-4.52322 -3.8773,-1.43654 -7.7584,-2.95206 -11.2584,-5.18893 -3.6688,-2.19627 -7.2443,-4.52558 -10.7775,-6.93638 -3.9268,-2.71753 -8.0716,-5.23209 -11.4686,-8.61594 -2.4998,-3.44381 -4.8256,-6.96464 -6.5809,-10.86182 -1.9136,-4.24701 -3.7619,-8.51529 -5.6134,-12.78106 -1.672,-4.30747 -2.6234,-8.76336 -3.3098,-13.32712 -0.702,-5.02564 -0.2841,-10.13194 -0.338,-15.19628 0.1278,-4.78983 0.3293,-9.61066 1.4936,-14.28261 1.3057,-4.69098 3.0224,-9.28298 4.8548,-13.78731 1.38,-4.02281 3.4004,-7.72696 5.4189,-11.45573 2.1472,-2.72532 4.8919,-4.95856 7.2909,-7.45625 2.3571,-2.93964 5.3005,-5.23246 7.9471,-7.87708 6.7459,-4.6982 -4.0392,2.93197 2.8461,-2.36367 10.9869,-8.45024 23.9292,-14.46954 36.2582,-20.94774 3.5846,-1.73874 7.4067,-2.99812 11.2541,-4.0139 3.9773,-1.11079 8.1056,-1.99826 12.2367,-2.16162 4.613,-0.003 9.2259,-0.009 13.8389,-0.0175 4.6255,-0.004 9.2523,-0.0222 13.8761,0.11845 4.841,0.19972 9.6831,0.5583 14.4326,1.5729 5.2476,1.07902 10.5365,1.82209 15.7911,2.85163 4.4755,1.038 9.0552,1.57287 13.47,2.88799 3.9944,0.83367 7.901,1.86963 11.7761,3.14886 4.0493,1.0058 8.0918,2.26618 11.8508,4.08766 3.0114,1.74539 6.0875,3.37422 8.7594,5.64005 2.4276,2.3388 4.7821,4.76623 6.9952,7.30794 2.5718,2.88803 4.857,6.05345 6.6455,9.48756 1.8942,3.19017 3.3909,6.53106 4.8022,9.95824 1.035,3.81847 2.1514,7.55372 2.5049,11.52105 0.7407,4.57671 0.3611,9.03833 -0.8165,13.53643 -1.0106,3.85221 -1.6024,7.79731 -3.0121,11.52871 -0.8356,1.73213 -1.0506,3.47171 -1.6894,5.27602 -0.1998,0.56441 -0.4564,1.10706 -0.6846,1.66059 -0.2639,0.49796 -0.5915,0.96709 -0.7917,1.49389 -0.2394,0.62992 -0.3458,1.30265 -0.5187,1.95398 -1.3858,3.60491 -3.5526,6.97595 -5.8371,10.0647 -1.9207,3.51113 -4.4364,6.61326 -6.8826,9.74518 -1.3376,1.49397 -0.8354,1.16506 -2.5412,2.17071 -11.9933,7.07057 -23.0713,14.48595 -35.3749,20.38226 -3.022,1.67751 -6.2231,3.02872 -9.3621,4.46926 -3.2995,1.53893 -6.8265,2.55643 -10.3532,3.43053 -3.6368,1.11787 -7.3753,1.69388 -11.0035,2.8433 -3.6419,1.05935 -7.457,1.48594 -10.9975,2.93419 -3.892,0.87058 -7.5093,2.31152 -11.201,3.78802 -3.654,1.34705 -7.2408,2.88712 -10.9409,4.09331 -3.856,1.4153 -7.5636,3.20841 -11.5132,4.38689 -4.1075,1.21495 -8.1395,2.62705 -12.1298,4.18615 -3.6383,0.94816 -7.1043,2.41288 -10.8039,3.13414 -4.2576,1.18026 -8.6034,1.75045 -12.9328,2.61383 -4.9539,0.93829 -10.0063,1.1916 -14.9541,2.19342 -4.6512,0.73966 -9.3723,0.90454 -13.9912,1.86971 -4.8709,0.88301 -9.7571,0.90401 -14.6981,0.99221 -4.7011,0.28015 -9.3796,0.76754 -14.0071,1.67071 -4.6275,0.65099 -9.2931,0.44595 -13.9477,0.79893 -4.633,0.39288 -9.207,1.13801 -13.7991,1.84806 -4.66,0.22099 -9.3273,0.091 -13.9914,0.13127 -4.5545,-0.0116 -9.117,-0.003 -13.6592,-0.38097 -4.0113,-0.43716 -7.9429,-1.19849 -11.6585,-2.83926 -3.672,-1.09749 -7.2797,-2.37981 -10.9933,-3.33002 -4.2788,-1.32909 -8.6469,-2.41797 -12.7797,-4.15665 -4.2187,-1.55476 -8.5172,-2.90306 -12.6702,-4.6334 -3.7965,-1.50759 -7.5504,-3.10711 -11.4077,-4.45593 -3.6162,-1.322 -7.222,-2.64975 -10.8772,-3.85571 -3.7995,-1.49716 -7.7567,-2.51962 -11.6683,-3.67959 -3.4977,-1.25366 -7.0473,-2.33939 -10.4919,-3.73348 -3.9493,-1.39216 -7.7606,-3.04547 -11.6143,-4.68147 -3.6803,-1.67396 -7.4387,-3.19861 -11.0057,-5.10488 -3.0994,-1.51152 -6.192,-3.03385 -9.2628,-4.60115 -3.2932,-1.58397 -6.5928,-3.1544 -9.8511,-4.80748 -3.3911,-1.70225 -6.702,-3.50681 -9.7911,-5.72867 -3.8403,-2.47033 -7.3435,-5.46441 -11.4361,-7.55398 -6.5979,-4.06989 -13.2867,-7.98045 -19.9184,-11.99398 0,0 28.722,-18.71974 28.722,-18.71974 z"
       inkscape:connector-curvature="0" />
    <path
       style="opacity:1;fill:#eae1bb;fill-opacity:1;stroke:none;stroke-width:31.74803162;stroke-miterlimit:4;stroke-dasharray:none;stroke-opacity:1"
       id="path897"
       d="m 1184.6467,290.64339 c 7.8834,2.43048 16.0139,3.76487 23.9575,5.95408 4.9194,0.98516 9.6276,2.69379 14.5651,3.59567 0.7379,0.0964 1.4997,0.0795 2.2137,0.28932 1.661,0.48807 3.1532,1.43248 4.7552,2.08871 2.4076,0.98618 4.7928,1.52497 7.3378,2.02643 5.3663,1.67049 10.9008,2.57054 16.3665,3.83446 5.353,0.70937 10.5708,1.8304 15.8463,2.95762 0.8128,0.11683 1.6482,0.12743 2.4386,0.3505 1.859,0.52468 3.5544,1.51958 5.373,2.17082 2.8056,1.0047 5.7187,1.63723 8.5475,2.57871 5.7919,1.56345 11.6714,2.90706 17.5795,3.99047 6.4899,0.44543 12.5265,2.86281 18.829,4.32268 6.2797,1.47311 12.6791,2.38043 18.9842,3.72294 6.2666,1.81774 12.9407,1.2197 19.1415,3.07729 5.4412,2.0831 11.1717,3.15916 16.8347,4.44902 6.1285,1.34776 12.4167,1.58604 18.6662,1.76601 5.4746,1.95995 11.0429,3.31206 16.8018,4.06622 6.2879,0.77302 12.6474,0.23343 18.919,1.04322 5.6069,1.0455 11.2837,1.45678 16.9726,1.6959 6.3007,0.35306 12.6345,-0.17758 18.9008,0.59531 6.4152,0.96536 12.8817,1.44123 19.3589,1.70705 6.5698,0.36997 13.0547,0.27861 19.5662,-0.61669 6.6196,-0.92218 13.2962,-1.20117 19.9688,-1.39177 1.1579,-0.018 2.3251,0.0941 3.4736,-0.054 0.9685,-0.12491 5.431,-1.44758 6.3882,-1.69406 3.2919,-0.8476 6.5875,-1.45401 9.947,-1.94926 6.7389,-0.72613 13.4624,-0.87223 20.1701,-1.86599 6.6366,-0.95437 13.337,-1.20516 20.03,-1.38105 6.2756,-1.45037 13.1666,-0.58591 19.1692,-2.92966 5.6042,-2.3163 11.5769,-3.23854 17.5796,-3.73058 5.4551,-1.77464 11.3414,-1.34425 16.7199,-3.18298 6.1829,-1.9602 12.506,-3.57715 18.8503,-4.95002 5.8016,-0.53228 11.3405,-2.23763 17.0981,-3.04175 4.5341,-2.48385 9.3524,-4.47929 14.2934,-6.01045 2.0851,-1.47906 4.6485,-1.72333 6.9732,-2.57174 2.1045,-0.76803 4.0221,-1.7831 6.1843,-2.44884 -9.2711,5.22344 -18.5219,10.48298 -27.8133,15.67031 -0.598,0.33388 1.1585,-0.73115 1.7303,-1.10823 1.6785,-1.10697 3.3468,-2.44609 5.0876,-3.43985 10.4716,-5.9779 21.0146,-11.82976 31.5219,-17.74465 10.5334,-5.61704 24.3685,-13.57455 -24.1324,13.98183 -0.5409,0.30731 1.0483,-0.67017 1.5751,-1.00094 2.4628,-1.54614 0.9224,-0.51379 3.2668,-2.14844 3.2245,-2.1426 4.9235,-5.13223 6.7147,-8.4208 1.8671,-3.46667 2.2032,-7.37737 2.4579,-11.23158 0.4311,-4.1684 0.087,-8.19876 -0.7416,-12.27703 -0.5281,-3.91827 -1.2504,-7.74126 -2.2249,-11.57003 -0.6765,-3.46323 -1.9716,-6.76449 -3.4596,-9.94973 -1.3298,-3.15431 -2.9001,-6.2047 -4.5003,-9.23233 -1.6426,-3.35867 -3.8857,-6.29214 -6.0957,-9.27654 -2.264,-2.25074 -4.0748,-4.99046 -6.8872,-6.59285 -2.5123,-2.20977 -5.4611,-3.75914 -8.1452,-5.70317 -3.1984,-1.99566 -6.9029,-2.90738 -10.2443,-4.57834 -3.7975,-1.61305 -7.5598,-3.20962 -11.6066,-4.08841 -4.412,-0.77407 -8.9054,-0.80738 -13.3711,-0.85455 -2.4454,0.93157 -5.1908,0.9094 -7.6675,1.64456 -1.1457,0.34008 -2.1852,0.97121 -3.3017,1.3973 -3.328,1.06007 -6.3307,2.90901 -9.4488,4.46775 53.7455,-29.71304 29.4705,-20.3845 21.6367,-10.20982 -2.289,2.77583 -4.1412,5.92023 -5.7157,9.15015 -1.8314,2.99142 -2.8997,6.35196 -4.1772,9.60072 -1.0139,3.52768 -2.4657,6.8782 -3.2568,10.46802 -0.8976,3.88992 -0.6652,7.66951 0.065,11.53784 0.7347,3.17641 2.8,5.52041 4.7397,8.00675 2.1924,2.36635 4.6249,4.4959 6.7836,6.89284 2.1998,2.32352 4.6704,4.21022 7.3916,5.8887 2.7885,2.34325 5.7945,4.43546 8.8336,6.43865 3.1183,1.72707 6.196,3.478 9.3604,5.13096 3.4859,2.46077 7.5515,3.82516 11.2616,5.84147 3.8419,1.51666 7.2173,3.95719 10.4342,6.54792 3.5717,2.43175 7.6554,3.97663 11.6819,5.49838 4.3091,1.3472 8.4297,3.20411 12.505,5.1229 3.7618,1.70466 7.9056,2.52018 11.6897,4.13235 3.6618,1.0017 7.1322,2.61511 10.8257,3.47805 4.6276,2.3581 9.3069,4.70454 14.221,6.40814 4.8628,1.70282 9.749,2.87479 14.8697,3.47815 4.9271,1.3132 9.9409,2.11613 15.0171,2.52073 4.8213,0.29225 9.6545,0.27962 14.4827,0.29018 5.1408,0.18598 10.1381,0.0477 15.1822,-0.90198 5.1083,-0.9923 10.3221,-1.16961 15.5089,-1.34168 5.0542,-1.15869 10.1695,-1.77431 15.3352,-2.10489 2.5929,-0.55223 5.4655,0.27546 8.0421,-0.2676 2.0666,-0.43556 4.2768,-1.93803 6.3317,-2.58986 4.4681,-1.05118 8.9548,-2.25341 13.179,-4.07946 4.7517,-1.78649 9.7672,-2.74124 14.5488,-4.40998 4.7727,-1.51864 9.3777,-3.42617 13.9436,-5.44985 4.0932,-1.07663 7.4489,-3.6694 11.3538,-5.15617 9.8861,-6.38251 24.6008,-13.86849 -24.8657,14.21094 -0.4975,0.28242 0.9224,-0.67714 1.3901,-1.00656 1.9902,-1.40165 0.7039,-0.35751 2.5798,-2.01533 2.5859,-2.01012 4.865,-4.1501 6.1168,-7.20908 1.1528,-4.04104 1.1274,-8.29157 1.1888,-12.45967 0.2902,-4.59653 -0.1606,-9.08484 -0.929,-13.6042 -1.1705,-3.67938 -2.1947,-7.39767 -3.6073,-10.99247 -0.9803,-3.10145 -2.5303,-6.01563 -4.7329,-8.4153 -2.3746,-2.83056 -4.2479,-6.03136 -6.7222,-8.77633 -1.8963,-2.85416 -5.033,-4.34615 -7.5357,-6.57416 -1.446,-1.22433 -5.2391,-2.99418 -5.7508,-0.16313 9.4232,-5.44724 18.8463,-10.89448 28.2695,-16.34172 -0.5851,0.3546 -1.3402,0.72981 -1.7703,1.3005 -0.7304,0.96908 -1.3311,2.27985 -1.8945,3.35994 -1.0533,2.73206 -2.0333,5.53685 -2.8471,8.36169 -0.5134,3.79596 -1.5031,7.47637 -2.3542,11.20336 -0.8503,4.1734 -0.9663,8.44302 -1.0665,12.68641 -0.1,4.53899 -0.2184,9.05018 0.4782,13.54481 0.5371,3.88939 1.9778,7.57126 3.6428,11.10006 1.3661,3.17889 2.9676,6.25412 4.5934,9.30995 1.6855,2.69439 3.9884,4.85929 6.0381,7.25317 2.2804,2.30824 4.7147,4.47718 6.8828,6.89605 2.1917,2.3299 4.6574,4.21943 7.3764,5.89952 3.0642,2.26401 6.5239,3.89535 9.6779,5.99759 3.1747,1.4665 6.4296,2.91989 9.7907,3.94963 3.7362,0.49943 7.1574,2.01243 10.8613,2.6978 4.2702,0.86884 8.4478,2.00537 12.8027,2.52409 4.549,0.43884 9.1241,0.45026 13.6898,0.4716 4.6162,0.006 9.2325,-0.008 13.8487,-0.0153 4.6164,-0.006 9.2328,-0.008 13.8492,-0.008 4.6156,-5.1e-4 9.2312,-3.5e-4 13.8468,-2.9e-4 4.5619,-0.16093 8.9572,-0.11447 13.4004,0.91889 3.9957,0.94756 8.1024,1.15699 12.1899,1.30589 4.5409,0.11883 9.0839,0.10329 13.6259,0.10004 4.7489,-0.35837 9.3358,0.93586 14.0053,1.58361 4.0022,0.7948 8.3072,1.51347 12.1053,3.07725 3.7663,1.18499 7.5175,2.45595 11.359,3.40381 4.3728,1.31051 9.0302,1.91838 13.3241,3.46697 4.0187,1.14072 7.9829,2.46879 12.0461,3.45957 3.8522,1.18287 8.0124,1.94117 11.7337,3.52041 3.3619,1.27182 6.8354,2.48735 9.9298,4.33743 3.4104,1.80036 6.8018,3.69131 9.7484,6.19668 3.0668,2.36679 6.4032,4.34108 9.2957,6.92493 2.6899,2.19069 5.3294,4.51741 7.6656,7.09181 2.1972,2.33184 4.6574,4.23594 7.3789,5.92311 2.7803,2.3466 5.7836,4.43671 8.819,6.43801 3.118,1.72709 6.1956,3.47771 9.3597,5.13047 3.3747,1.04203 6.4722,2.62616 9.9508,3.35772 3.7543,0.65653 7.5497,0.99454 10.854,-1.16177 -1.4975,1.17377 7.863,-4.2891 6.0037,-3.21346 -28.8972,16.71754 -36.666,22.66129 -26.726,15.16631 2.7484,-1.83606 4.8131,-4.45742 7.5723,-6.27074 10.7407,-8.36811 23.1444,-13.36989 34.8144,-20.98324 9.0351,-5.89431 -18.665,10.82239 -28.0317,16.17402 -0.4911,0.28062 0.9337,-0.63891 1.4005,-0.95837 83.9968,-47.93256 2.0351,-1.02785 3.0062,-1.62243 10.1498,-6.21443 20.575,-11.96892 30.9463,-17.80621 0.5228,-0.29423 1.1703,-0.30261 1.7064,-0.57178 0.5,-0.25106 0.9123,-0.64804 1.3684,-0.97206 0.5125,-0.2541 1.025,-0.50821 1.5375,-0.76231 0.5705,-0.18946 1.141,-0.37892 1.7115,-0.56838 0,0 -27.007,21.32367 -27.007,21.32367 v 0 c -0.5107,0.26794 -1.0213,0.53588 -1.5319,0.80381 -3.4882,1.96256 0.5669,-0.25279 -3.0669,1.52371 -0.5159,0.25223 -2.0095,1.11268 -1.5128,0.82449 9.3143,-5.40367 37.4724,-21.22898 27.9659,-16.17125 -4.6759,2.48767 -73.4911,42.40005 -3.0217,1.58062 -11.6325,6.32173 -6.9406,3.75128 -32.2337,18.84427 -9.2563,5.52347 18.5875,-10.92073 27.9055,-16.3394 0.4691,-0.2728 -0.9389,0.55363 -1.3563,0.90045 -2.7245,2.26393 0.4041,0.30843 -2.6239,2.0336 -2.7631,2.41895 0.2943,-0.0479 -2.7504,1.79771 -1.8718,1.1346 -3.1312,3.18091 -4.7804,4.58224 -12.2406,8.17637 -24.7056,16.3964 -38.3692,21.93221 -4.0699,0.7569 -8.1054,0.51877 -12.1118,-0.58243 -3.5623,-1.08726 -7.0298,-2.53764 -10.4305,-4.04051 -3.1938,-1.7914 -6.458,-3.44485 -9.5358,-5.44009 -2.9621,-2.0965 -5.9862,-4.10387 -8.8163,-6.38057 -2.8102,-1.9741 -5.4933,-4.03582 -7.8025,-6.59846 -2.3454,-2.4006 -4.8288,-4.67911 -7.4455,-6.78056 -2.9834,-2.4112 -6.2369,-4.44957 -9.2411,-6.83455 -2.9445,-2.19545 -6.15,-3.97938 -9.4166,-5.64942 -3.1622,-1.4485 -6.334,-2.85965 -9.6451,-3.94075 -3.8359,-1.12217 -7.6278,-2.39326 -11.5243,-3.29004 -4.0588,-1.15336 -8.1289,-2.27258 -12.1416,-3.57825 -4.4082,-1.13855 -8.826,-2.23703 -13.2393,-3.35814 -3.864,-1.12042 -7.7421,-2.21401 -11.5277,-3.57902 -3.8566,-1.03418 -7.7176,-2.15512 -11.6979,-2.58692 -4.5536,-0.72173 -9.0765,-1.50673 -13.7139,-1.17064 -4.5792,-0.007 -9.1613,-0.004 -13.7361,-0.23121 -4.2058,-0.2679 -8.3888,-0.73792 -12.5006,-1.69692 -4.2925,-0.68942 -8.6468,-0.3027 -12.9786,-0.39555 -4.6154,-2e-5 -9.2308,-1.4e-4 -13.8462,10e-4 -4.6155,0.002 -9.231,0.004 -13.8465,0.012 -4.6237,0.007 -9.2476,0.0252 -13.8712,-0.0164 -4.6603,-0.069 -9.335,-0.16464 -13.9553,-0.83837 -4.3717,-0.72173 -8.6291,-1.91206 -12.9851,-2.71242 -3.719,-0.94314 -7.381,-2.10018 -11.1025,-3.02674 -3.4771,-1.34823 -7.0386,-2.61628 -10.2148,-4.59375 -3.3075,-1.92401 -6.5431,-3.95233 -9.7395,-6.05747 -2.8172,-1.97155 -5.5128,-4.0256 -7.8178,-6.5996 -2.2704,-2.36459 -4.6583,-4.61347 -6.9312,-6.9762 -2.2817,-2.53906 -4.6352,-5.01662 -6.4334,-7.94222 -1.6489,-3.10637 -3.2856,-6.22896 -4.6646,-9.46137 -1.7894,-3.80932 -3.398,-7.77628 -4.0437,-11.95899 -0.8296,-4.68705 -0.9808,-9.33816 -0.7758,-14.09963 0.059,-4.41484 0.1201,-8.84693 0.7592,-13.2242 0.6698,-3.8149 2.0985,-7.40373 2.2856,-11.29377 0.5901,-3.13808 1.9252,-5.88017 2.4858,-8.99386 6.3157,-14.72996 9.664,-12.7952 33.6154,-24.30415 2.9937,0.67943 5.8171,1.35343 8.1007,3.63742 2.7543,2.17696 5.7842,4.08826 7.7987,7.04261 2.3721,2.83116 4.3664,5.94152 6.7447,8.76833 2.3098,2.80019 4.2442,5.9359 5.2961,9.43369 1.5007,3.81989 2.5695,7.75299 3.8923,11.64113 0.8055,4.70533 1.5979,9.34234 1.2186,14.14545 -0.021,4.44221 0,8.91339 -0.7143,13.31099 -0.8372,3.86294 -2.3008,6.50631 -5.2691,9.09256 -4.6566,3.39682 2.1081,-1.67747 -2.4878,2.26308 -10.3088,8.8387 -23.3126,14.59166 -35.5037,20.73844 -3.6963,1.91464 -7.4539,3.64548 -11.3495,5.12837 -4.5847,2.00175 -9.3688,3.56447 -14.1218,5.11158 -4.8771,1.37411 -9.756,2.76996 -14.4895,4.59152 -4.3898,1.39706 -8.7859,2.72442 -13.2144,3.98688 -4.961,1.82303 -9.6079,2.00476 -14.8634,2.15237 -5.1695,0.49602 -10.2488,1.56427 -15.4205,2.00592 -5.1295,0.25841 -10.2398,0.70934 -15.2914,1.67581 -5.1403,0.6718 -10.3143,0.41676 -15.4877,0.44089 -4.904,-0.0221 -9.8178,-0.0323 -14.7018,-0.53575 -5.0772,-0.59843 -10.0504,-1.68612 -15.0646,-2.65662 -5.2484,-0.84668 -10.3191,-2.26385 -15.3146,-4.08665 -4.7596,-1.91281 -9.3162,-4.29306 -14.1005,-6.13729 -3.6845,-1.19141 -7.3696,-2.38566 -11.0069,-3.71416 -4.0182,-1.2905 -7.9681,-2.71494 -11.8553,-4.36885 -3.9843,-1.91514 -8.1387,-3.47346 -12.2949,-4.97046 -4.2656,-1.72692 -8.6325,-3.38767 -12.2844,-6.26556 -3.1862,-2.327 -6.3829,-4.55772 -10.0715,-6.02737 -3.8552,-1.82627 -7.6968,-3.66489 -11.3475,-5.88804 -3.1938,-1.79151 -6.4578,-3.44517 -9.5359,-5.44001 -2.9638,-2.09669 -5.9891,-4.10452 -8.8262,-6.37446 -2.819,-1.96844 -5.5188,-4.0176 -7.8306,-6.5849 -2.301,-2.38664 -4.7277,-4.64938 -6.9271,-7.13443 -2.3054,-2.89773 -4.49,-5.81966 -5.517,-9.45057 -0.8344,-4.23781 -1.4837,-8.35367 -0.6384,-12.67431 0.5607,-3.8269 1.8265,-7.3035 3.0154,-10.92748 1.0411,-3.4931 2.5486,-6.83237 3.8911,-10.20655 2.101,-3.04355 3.2584,-6.70887 5.4974,-9.70236 2.8769,-3.14548 -0.314,0.52126 2.3263,-3.12408 8.053,-11.11849 30.8408,-7.72468 34.5387,-21.64367 3.0992,-1.66625 6.3989,-2.98096 9.7367,-4.08447 3.7366,-1.21378 7.7425,-1.90769 11.6642,-2.02112 4.6407,0.13357 9.3155,0.32882 13.8346,1.49339 4.1099,1.1925 8.064,2.84148 11.9705,4.58131 3.6223,1.47262 7.3361,2.83301 10.5945,5.04265 2.8139,1.76521 5.465,3.73095 8.1408,5.69906 2.8428,2.16681 5.1373,4.90415 7.4816,7.58738 2.3293,3.11599 4.5661,6.26925 6.3718,9.72804 1.6237,3.078 3.2322,6.1744 4.5803,9.37963 1.578,3.37619 3.0393,6.86658 3.7614,10.53633 0.9575,3.88668 1.9258,7.70302 2.2903,11.70565 0.8944,4.34544 1.6051,8.59618 1.1189,13.06316 -0.1612,4.20833 -0.336,8.49267 -1.8071,12.48724 -0.2573,0.56202 -0.5145,1.12404 -0.7718,1.68606 -0.309,0.5007 -0.6738,0.97102 -0.9271,1.50209 -1.1864,2.48764 -1.9246,4.97409 -4.5117,6.4625 -1.4383,1.55877 -2.8068,2.57717 -4.639,3.63887 -11.2491,6.51827 -22.7503,14.21094 -34.8449,19.82555 9.1592,-5.31377 18.3499,-10.57356 27.4775,-15.94133 0.6006,-0.3532 -1.3059,0.51318 -1.8896,0.89364 -1.6812,1.09581 -3.2014,2.53957 -4.9602,3.55917 -10.4066,6.03288 -20.894,11.92551 -31.341,17.88826 -4.3588,1.70108 -8.7657,3.25518 -13.1178,4.97311 -4.8797,1.85006 -9.5728,4.30503 -14.6479,5.53894 -5.6456,1.02659 -11.2426,2.29896 -16.9144,3.18581 -6.3072,1.5237 -12.5807,3.18498 -18.8017,5.02933 -5.6551,1.02654 -11.3641,1.77482 -17.0223,2.78876 -5.9111,0.78868 -11.6301,2.21811 -17.2636,4.18445 -6.4773,1.11675 -13.076,1.61451 -19.614,2.24886 -6.6343,0.24101 -13.2607,0.6821 -19.8316,1.66995 -6.6846,0.80724 -13.4394,0.80465 -20.0867,1.94756 -6.6712,1.27298 -13.2226,3.4914 -20.0859,3.33322 -6.6262,0.25603 -13.2384,0.73271 -19.8119,1.63186 -6.6202,0.65144 -13.2585,0.46743 -19.8974,0.15715 -6.5078,-0.36034 -12.9819,-1.03993 -19.4523,-1.81507 -6.2708,-0.34265 -12.5592,-0.0984 -18.831,-0.47961 -5.7215,-0.33628 -11.3985,-0.97817 -17.0659,-1.83116 -6.3428,-0.42024 -12.7339,-0.2026 -19.0375,-1.17449 -5.6108,-0.95401 -10.9853,-2.71964 -16.5577,-3.77095 -6.3929,-0.30296 -12.8061,-0.7421 -19.0405,-2.29285 -5.6704,-1.32543 -11.3513,-2.56624 -16.8614,-4.48216 -6.3103,-1.14457 -12.79,-1.32327 -19.0276,-2.96728 -6.3937,-1.14666 -12.751,-2.41358 -19.0886,-3.84367 -6.2133,-1.603 -12.329,-3.53616 -18.7449,-4.183 -5.9793,-1.23551 -11.9897,-2.46596 -17.8142,-4.30872 -5.4094,-1.63969 -10.6977,-3.73267 -16.2503,-4.80251 -5.2417,-1.20853 -10.5467,-1.91637 -15.8088,-3.01617 -5.464,-1.25374 -10.9867,-2.22817 -16.3722,-3.81421 -4.8639,-1.23529 -9.3508,-3.52028 -14.3151,-4.32868 -4.9012,-1.14573 -9.7098,-2.65867 -14.6041,-3.83709 -7.957,-2.21388 -16.1049,-3.64505 -24.0305,-5.99262 0,0 28.3078,-19.33206 28.3078,-19.33206 z"
       inkscape:connector-curvature="0" />
  </g>
  <g
     inkscape:groupmode="layer"
     id="layer2"
     inkscape:label="Background">
    <circle
       style="opacity:1;fill:#000000;fill-opacity:0.96774191;stroke:none;stroke-width:31.80227661;stroke-miterlimit:4;stroke-dasharray:none;stroke-opacity:1"
       id="path827-8-9"
       cx="1506.9747"
       cy="971.04272"
       r="953.58209" />
  </g>
  <ellipse
     style="opacity:1;fill:#082926;fill-opacity:1;stroke:none;stroke-width:31.74803162;stroke-miterlimit:4;stroke-dasharray:none;stroke-opacity:1"
     id="path827"
     cx="1501.2053"
     cy="976.81213"
     r="951.95569" />
  <g
     inkscape:groupmode="layer"
     id="layer3"
     inkscape:label="Text">
    <text
       xml:space="preserve"
       style="font-style:normal;font-variant:normal;font-weight:normal;font-stretch:normal;font-size:1886.70031738px;line-height:1.25;font-family:Deutschlander;-inkscape-font-specification:'Deutschlander, Normal';font-variant-ligatures:normal;font-variant-caps:normal;font-variant-numeric:normal;font-feature-settings:normal;text-align:start;letter-spacing:0px;word-spacing:0px;writing-mode:lr-tb;text-anchor:start;fill:#eae1bb;fill-opacity:1;stroke:none;stroke-width:26.3412056;"
       id="text844"
       y="-7340.0576"
       x="9205.0576"
       transform="scale(1.22681,0.81512217)"><tspan
         id="tspan842"
         style="font-style:normal;font-variant:normal;font-weight:normal;font-stretch:normal;font-size:1886.70031738px;font-family:Deutschlander;-inkscape-font-specification:'Deutschlander, Normal';font-variant-ligatures:normal;font-variant-caps:normal;font-variant-numeric:normal;font-feature-settings:normal;text-align:start;writing-mode:lr-tb;text-anchor:start;stroke-width:26.3412056;fill:#eae1bb;fill-opacity:1;"><tspan
           x="491.44614"
           y="1748.9436"
           style="font-style:normal;font-variant:normal;font-weight:normal;font-stretch:normal;font-size:1886.70031738px;font-family:Deutschlander;-inkscape-font-specification:'Deutschlander, Normal';font-variant-ligatures:normal;font-variant-caps:normal;font-variant-numeric:normal;font-feature-settings:normal;text-align:start;writing-mode:lr-tb;text-anchor:start;stroke-width:26.3412056;fill:#eae1bb;fill-opacity:1;"
           id="tspan840">MP</tspan></tspan></text>
    <ellipse
       style="opacity:1;fill:#38c91a;fill-opacity:1;stroke:none;stroke-width:31.74803162;stroke-miterlimit:4;stroke-dasharray:none;stroke-opacity:1"
       id="path852"
       cx="1755.0602"
       cy="937.58008"
       r="550.4035" />
    <g
       transform="matrix(0.20907108,0,0,-0.20506453,1385.4522,1813.048)"
       id="g2991"
       style="fill:#eae1bb;fill-opacity:1">
      <path
         d="M 583.58877,644.88764 C 529.81686,644.53452 476.54472,630.54521 424.9168,615.21492 375.10106,600.42274 325.45538,582.27965 280.67838,555.55431 239.7856,531.14727 169.59519,465.11769 169.59519,465.11769 c 0,0 74.22483,-81.23019 119.52148,-110.99736 59.90371,-39.36635 126.88175,-70.15245 196.40243,-86.15021 59.55568,-13.70466 183.03145,-7.03367 183.03145,-7.03367 10.66597,-0.12485 100.88425,15.6262 146.73047,36.91449 51.51205,23.91917 103.45729,54.59014 138.90913,99.57784 24.97214,31.68914 46.10285,112.52732 46.10285,112.52732 0,0 -116.55993,72.30521 -180.76477,94.00494 -75.72433,25.59306 -156.16446,41.45048 -235.93946,40.9266 z M 331.03821,891.79267 h 512 v 192.00003 c 0,70.6667 -25,131 -75,181 -50,50 -110.33333,75 -181,75 -70.66667,0 -131,-25 -181,-75 -50,-50 -75,-110.3333 -75,-181 z m 831.99999,-96 v -576 c 0,-26.66667 -9.3333,-49.33333 -28,-68 -18.6667,-18.66667 -41.3333,-28 -68,-28 H 107.03821 c -26.666664,0 -49.333329,9.33333 -67.999996,28 -18.666667,18.66667 -28,41.33333 -28,68 v 576 c 0,26.66667 9.333333,49.33333 28,68 18.666667,18.66667 41.333332,28 67.999996,28 h 32 v 192.00003 c 0,122.6667 44,228 132,316 88,88 193.33333,132 316,132 122.66667,0 228,-44 316,-132 87.99999,-88 131.99999,-193.3333 131.99999,-316 V 891.79267 h 32 c 26.6667,0 49.3333,-9.33333 68,-28 18.6667,-18.66667 28,-41.33333 28,-68 z"
         id="path2993"
         inkscape:connector-curvature="0"
         style="fill:#eae1bb;fill-opacity:1"
         sodipodi:nodetypes="aaacaasaacaaccssssscsssssssssscssssscsss" />
      <path
         style="opacity:1;fill:#eae1bb;fill-opacity:1;stroke:none;stroke-width:190.50686646;stroke-miterlimit:4;stroke-dasharray:none;stroke-opacity:1"
         id="path937"
         transform="matrix(0.84074562,0.54143032,0.57741032,-0.81645412,0,0)"
         sodipodi:type="arc"
         sodipodi:cx="766.30396"
         sodipodi:cy="-61.926575"
         sodipodi:rx="144.34474"
         sodipodi:ry="154.35329"
         sodipodi:start="0.17483536"
         sodipodi:end="6.0704601"
         d="M 908.44819,-35.077436 A 144.34474,154.35329 0 0 1 755.06436,91.958066 144.34474,154.35329 0 0 1 621.98512,-59.002538 144.34474,154.35329 0 0 1 749.62114,-215.24548 144.34474,154.35329 0 0 1 907.39505,-94.514329 l -141.09109,32.587754 z" />
    </g>
    <text
       xml:space="preserve"
       style="font-style:normal;font-variant:normal;font-weight:normal;font-stretch:normal;font-size:71.6293335px;line-height:1.25;font-family:Equestria;-inkscape-font-specification:'Equestria, Normal';font-variant-ligatures:normal;font-variant-caps:normal;font-variant-numeric:normal;font-feature-settings:normal;text-align:start;letter-spacing:0px;word-spacing:0px;writing-mode:lr-tb;text-anchor:start;fill:#000000;fill-opacity:1;stroke:none"
       x="2003.1456"
       y="1171.8188"
       id="text1474"><tspan
         sodipodi:role="line"
         id="tspan1472"
         x="2003.1456"
         y="1244.4695" /></text>
    <text
       xml:space="preserve"
       style="font-style:normal;font-variant:normal;font-weight:normal;font-stretch:normal;font-size:2189.234375px;line-height:1.25;font-family:Deutschlander;-inkscape-font-specification:'Deutschlander, Normal';font-variant-ligatures:normal;font-variant-caps:normal;font-variant-numeric:normal;font-feature-settings:normal;text-align:start;letter-spacing:0px;word-spacing:0px;writing-mode:lr-tb;text-anchor:start;fill:#eae1bb;fill-opacity:1;stroke:none;stroke-width:30.5650425;"
       id="text844-0"
       y="2025.5802"
       x="1253.6665"
       transform="scale(1.4235301,0.70247899)"><tspan
         id="tspan842-3"
         style="font-style:normal;font-variant:normal;font-weight:normal;font-stretch:normal;font-size:2189.234375px;font-family:Deutschlander;-inkscape-font-specification:'Deutschlander, Normal';font-variant-ligatures:normal;font-variant-caps:normal;font-variant-numeric:normal;font-feature-settings:normal;text-align:start;writing-mode:lr-tb;text-anchor:start;stroke-width:30.5650425;fill:#eae1bb;fill-opacity:1;">A<tspan
   x="-8857.1826"
   y="12572.012"
   style="font-style:normal;font-variant:normal;font-weight:normal;font-stretch:normal;font-size:2189.234375px;font-family:Deutschlander;-inkscape-font-specification:'Deutschlander, Normal';font-variant-ligatures:normal;font-variant-caps:normal;font-variant-numeric:normal;font-feature-settings:normal;text-align:start;writing-mode:lr-tb;text-anchor:start;stroke-width:30.5650425;fill:#eae1bb;fill-opacity:1;"
   id="tspan840-0" /></tspan></text>
    <rect
       style="opacity:1;fill:#eae1bb;fill-opacity:1;stroke:none;stroke-width:18.10482025;stroke-miterlimit:4;stroke-dasharray:none;stroke-opacity:1"
       id="rect1497"
       width="1846.2172"
       height="16.154402"
       x="581.55841"
       y="1417.6737" />
    <rect
       style="opacity:1;fill:#eae1bb;fill-opacity:1;stroke:none;stroke-width:18.3297348;stroke-miterlimit:4;stroke-dasharray:none;stroke-opacity:1"
       id="rect1499"
       width="1950.0669"
       height="16.1544"
       x="588.48169"
       y="405.63876" />
  </g>
  <g
     inkscape:groupmode="layer"
     id="layer4"
     inkscape:label="Symbol">
    <ellipse
       style="opacity:1;fill:#000000;fill-opacity:1;stroke:none;stroke-width:70.02301788;stroke-miterlimit:4;stroke-dasharray:none;stroke-opacity:1"
       id="path943"
       cx="1508.4329"
       cy="1711.2488"
       rx="91.587067"
       ry="55.890549" />
    <ellipse
       style="opacity:1;fill:#eae1bb;fill-opacity:1;stroke:none;stroke-width:46.53000259;stroke-miterlimit:4;stroke-dasharray:none;stroke-opacity:1"
       id="path947"
       cx="1511.0133"
       cy="1710.9719"
       rx="36.924343"
       ry="36.635872" />
    <path
       style="fill:#000000;fill-opacity:1;stroke:none;stroke-width:1.47173095px;stroke-linecap:butt;stroke-linejoin:miter;stroke-opacity:1"
       d="m 1545.2943,1682.5439 -30.3272,28.3244 39.1923,-12.3077 z"
       id="path951"
       inkscape:connector-curvature="0" />
    <path
       style="fill:none;fill-opacity:1;stroke:#000000;stroke-width:14.94359303;stroke-linecap:butt;stroke-linejoin:miter;stroke-miterlimit:4;stroke-dasharray:none;stroke-opacity:1"
       d="m 1309.058,1597.2795 c 377.7995,230.3918 377.7995,230.3918 377.7995,230.3918"
       id="path848"
       inkscape:connector-curvature="0" />
    <path
       style="fill:none;fill-opacity:1;stroke:#eae1bb;stroke-width:14.94359303;stroke-linecap:butt;stroke-linejoin:miter;stroke-miterlimit:4;stroke-dasharray:none;stroke-opacity:1"
       d="m 1312.058,1586.1397 c 377.7995,230.3917 377.7995,230.3917 377.7995,230.3917"
       id="path848-4"
       inkscape:connector-curvature="0" />
  </g>
  <ellipse
     style="opacity:1;fill:none;fill-opacity:1;stroke:#000000;stroke-width:33.05363464;stroke-miterlimit:4;stroke-dasharray:none;stroke-opacity:1"
     id="path827-8"
     cx="1504.6669"
     cy="969.88885"
     rx="995.15051"
     ry="987.0733" />
</svg>
